<?xml version="1.0" standalone="no"?>
<!DOCTYPE svg PUBLIC "-//W3C//DTD SVG 20010904//EN"
 "http://www.w3.org/TR/2001/REC-SVG-20010904/DTD/svg10.dtd">
<svg version="1.0" xmlns="http://www.w3.org/2000/svg"
 width="300.000000pt" height="300.000000pt" viewBox="0 0 300.000000 300.000000"
 preserveAspectRatio="xMidYMid meet">
<metadata>
Created by potrace 1.10, written by Peter Selinger 2001-2011
</metadata>
<g transform="translate(0.000000,300.000000) scale(0.100000,-0.100000)"
fill="#000000" stroke="none">
<path d="M929 2567 c-311 -172 -576 -319 -589 -328 -27 -18 -104 28 782 -464
l468 -260 0 -702 0 -702 122 69 c111 62 124 71 130 102 9 43 8 1337 -1 1361
-4 11 -214 134 -501 293 -272 152 -499 279 -503 283 -8 8 165 111 186 111 6 0
239 -127 519 -282 l508 -282 0 -698 c0 -384 2 -698 4 -698 3 0 59 30 125 66
l121 66 -2 706 -3 705 -290 159 c-768 423 -728 399 -708 413 10 7 61 35 113
63 l95 51 195 -107 c107 -60 338 -186 512 -282 l318 -174 2 -702 3 -702 122
66 123 67 0 707 0 707 -97 54 c-54 30 -280 155 -503 277 -223 122 -465 256
-538 296 -73 41 -136 74 -140 73 -4 0 -262 -141 -573 -312z"/>
<path d="M222 1414 l3 -646 445 -245 c245 -135 509 -280 588 -323 l142 -78 0
141 0 142 -292 160 c-161 88 -366 201 -457 251 l-166 92 -3 112 c-2 104 -1
112 15 106 10 -4 137 -73 283 -153 146 -81 345 -190 443 -244 l177 -98 0 142
0 142 -198 108 c-108 59 -314 172 -457 251 l-260 143 -3 112 c-1 61 -1 111 2
111 2 0 60 -31 128 -69 392 -218 779 -431 783 -431 3 0 5 62 5 138 l0 138
-579 322 c-319 177 -584 322 -590 322 -8 0 -10 -180 -9 -646z"/>
</g>
</svg>
